<?xml version="1.0" encoding="UTF-8"?>
<svg width="120px" height="120px" viewBox="0 0 120 120" version="1.1" xmlns="http://www.w3.org/2000/svg" xmlns:xlink="http://www.w3.org/1999/xlink">
    <!-- Generator: Sketch 52.2 (67145) - http://www.bohemiancoding.com/sketch -->
    <title>Success</title>
    <desc>Created with Sketch.</desc>
    <g id="物主支付宝小程序" stroke="none" stroke-width="1" fill="none" fill-rule="evenodd">
        <g id="待确认订单" transform="translate(-315.000000, -188.000000)">
            <g id="Group-4" transform="translate(0.000000, 128.000000)">
                <g id="状态反馈区域" transform="translate(30.000000, 60.000000)">
                    <g id="Success" transform="translate(285.000000, 0.000000)">
                        <circle id="Fill" fill="#FFDA29" cx="60" cy="60" r="60"></circle>
                        <g id="分组" transform="translate(35.000000, 34.000000)" fill="#231916">
                            <path d="M38.6076855,4.52641343 L11.4848057,4.52641343 L11.4848057,9.76837456 C11.4848057,14.1114841 12.9458481,19.7040636 25.0110424,24.6638693 C37.0789753,19.7040636 38.6076855,14.1114841 38.6076855,9.76837456 L38.6076855,4.52641343 Z M11.455477,47.8365724 L38.6370141,47.8365724 C38.6537986,45.3672261 38.6791519,50.8429329 38.6791519,45.4452297 C38.6791519,39.1500883 36.3353357,34.264841 25.0110424,29.5683746 C13.6905477,34.264841 11.4136926,39.1500883 11.4136926,45.4452297 C11.4136926,50.8429329 11.4385159,45.3672261 11.455477,47.8365724 Z M43.1340106,4.52641343 L43.1340106,9.76837456 C43.1340106,17.154682 39.1270318,22.7424912 30.534629,27.1173145 C39.4541519,31.630212 43.205477,37.1741166 43.205477,45.4452297 C43.205477,50.8329505 43.1806537,45.3523852 43.1636926,47.8365724 L47.6969965,47.8365724 C48.9475265,47.8365724 49.9603357,48.8480565 49.9603357,50.0996466 C49.9603357,51.3500883 48.9475265,52.3629859 47.6969965,52.3629859 L2.26333922,52.3629859 C1.01280919,52.3629859 0,51.3500883 0,50.0996466 C0,48.8480565 1.01280919,47.8365724 2.26333922,47.8365724 L6.92915194,47.8365724 C6.91183746,45.3523852 6.88701413,50.8329505 6.88701413,45.4452297 C6.88701413,37.1741166 10.5862191,31.630212 19.4912544,27.1173145 C10.9133392,22.7424912 6.95848057,17.154682 6.95848057,9.76837456 L6.95848057,4.52641343 L2.26333922,4.52641343 C1.01280919,4.52641343 0,3.51492933 0,2.26333922 C0,1.01280919 1.01280919,0 2.26333922,0 L47.6969965,0 C48.9475265,0 49.9603357,1.01280919 49.9603357,2.26333922 C49.9603357,3.51492933 48.9475265,4.52641343 47.6969965,4.52641343 L43.1340106,4.52641343 Z" id="Fill-1"></path>
                        </g>
                    </g>
                </g>
            </g>
        </g>
    </g>
</svg>